<?xml version="1.0" standalone="no"?>
<!DOCTYPE svg PUBLIC "-//W3C//DTD SVG 20010904//EN"
 "http://www.w3.org/TR/2001/REC-SVG-20010904/DTD/svg10.dtd">
<svg version="1.0" xmlns="http://www.w3.org/2000/svg"
 width="1279.000000pt" height="988.000000pt" viewBox="0 0 1279.000000 988.000000"
 preserveAspectRatio="xMidYMid meet">
<metadata>
Created by potrace 1.16, written by Peter Selinger 2001-2019
</metadata>
<g transform="translate(0.000000,988.000000) scale(0.100000,-0.100000)"
fill="#000000" stroke="none">
<path d="M454 9820 c-173 -45 -315 -159 -393 -313 -66 -133 -61 263 -61 -4547
0 -3875 2 -4372 15 -4425 55 -215 222 -379 443 -436 69 -17 113 -19 554 -19
l478 0 0 3695 c0 2032 3 3695 6 3695 3 0 1108 -803 2455 -1785 l2449 -1785
2450 1785 c1347 982 2451 1785 2454 1785 4 0 6 -1663 6 -3695 l0 -3695 478 0
c440 0 485 2 554 19 204 52 362 195 428 386 20 58 20 81 20 4475 l0 4416 -21
62 c-57 168 -208 314 -389 374 -57 19 -93 22 -292 26 l-227 4 -2725 -1986
c-1498 -1092 -2729 -1986 -2736 -1986 -6 0 -1237 893 -2735 1985 l-2723 1985
-209 -1 c-170 0 -221 -4 -279 -19z"/>
</g>
</svg>
